<svg data-v-423bf9ae="" xmlns="http://www.w3.org/2000/svg" viewBox="0 0 309 94" class="iconLeft"><!----><!----><!----><g data-v-423bf9ae="" id="ee0800d1-acef-4d09-bd10-1b1e70a45be9" fill="#3E261A" transform="matrix(3.4207522869110107,0,0,3.4207522869110107,93.3612060546875,20.325578689575195)"><path d="M7.62 9.84L7.62 9.84L7.62 9.84Q7.74 9.87 7.91 9.93L7.91 9.93L7.91 9.93Q8.08 10.00 8.08 10.19L8.08 10.19L8.08 10.19Q8.08 10.46 7.95 10.65L7.95 10.65L7.95 10.65Q7.90 10.72 7.79 10.78L7.79 10.78L7.79 10.78Q7.69 10.84 7.53 10.84L7.53 10.84L7.53 10.84Q7.49 10.82 7.43 10.81L7.43 10.81L7.43 10.81Q7.38 10.81 7.22 10.79L7.22 10.79L7.22 10.79Q7.03 10.77 6.60 10.75L6.60 10.75L6.60 10.75Q6.17 10.74 5.50 10.74L5.50 10.74L5.50 10.74Q4.47 10.74 3.46 10.99L3.46 10.99L3.46 10.99Q2.44 11.26 2.07 11.26L2.07 11.26L2.07 11.26Q1.57 11.26 1.33 11.03L1.33 11.03L1.33 11.03Q1.05 10.78 1.05 10.35L1.05 10.35L1.05 10.35Q1.05 10.19 1.18 10.04L1.18 10.04L1.18 10.04Q1.30 9.90 1.62 9.70L1.62 9.70L1.62 9.70Q1.95 9.52 2.10 9.41L2.10 9.41L2.10 9.41Q2.25 9.30 2.31 9.23L2.31 9.23L2.31 9.23Q3.04 8.36 3.70 7.43L3.70 7.43L3.70 7.43Q4.35 6.51 4.80 5.46L4.80 5.46L4.80 5.46Q5.25 4.41 5.50 3.52L5.50 3.52L5.50 3.52Q5.74 2.63 5.74 1.83L5.74 1.83L5.74 1.83Q5.74 1.57 5.61 1.29L5.61 1.29L5.61 1.29Q5.47 1.02 5.25 0.82L5.25 0.82L5.25 0.82Q5.03 0.62 4.75 0.50L4.75 0.50L4.75 0.50Q4.48 0.39 4.19 0.43L4.19 0.43L4.19 0.43Q3.78 0.48 3.46 0.68L3.46 0.68L3.46 0.68Q3.15 0.88 2.93 1.15L2.93 1.15L2.93 1.15Q2.72 1.41 2.58 1.70L2.58 1.70L2.58 1.70Q2.45 1.99 2.44 2.20L2.44 2.20L2.44 2.20Q2.41 2.49 2.41 2.72L2.41 2.72L2.41 2.72Q2.41 2.95 2.44 3.16L2.44 3.16L2.44 3.16Q2.46 3.36 2.51 3.57L2.51 3.57L2.51 3.57Q2.55 3.78 2.62 4.03L2.62 4.03L2.62 4.03Q2.66 4.24 2.70 4.47L2.70 4.47L2.70 4.47Q2.74 4.69 2.74 4.87L2.74 4.87L2.74 4.87Q2.74 5.04 2.67 5.15L2.67 5.15L2.67 5.15Q2.60 5.26 2.42 5.26L2.42 5.26L2.42 5.26Q2.14 5.26 1.88 4.93L1.88 4.93L1.88 4.93Q1.62 4.59 1.46 4.02L1.46 4.02L1.46 4.02Q1.30 3.46 1.28 2.71L1.28 2.71L1.28 2.71Q1.26 1.96 1.48 1.12L1.48 1.12L1.48 1.12Q1.55 0.90 1.73 0.61L1.73 0.61L1.73 0.61Q1.90 0.32 2.20 0.06L2.20 0.06L2.20 0.06Q2.49-0.20 2.91-0.38L2.91-0.38L2.91-0.38Q3.33-0.57 3.88-0.60L3.88-0.60L3.88-0.60Q4.45-0.63 5.03-0.46L5.03-0.46L5.03-0.46Q5.61-0.28 6.08 0.08L6.08 0.08L6.08 0.08Q6.54 0.43 6.83 0.97L6.83 0.97L6.83 0.97Q7.13 1.50 7.13 2.20L7.13 2.20L7.13 2.20Q7.13 2.56 7.05 2.98L7.05 2.98L7.05 2.98Q6.97 3.40 6.82 3.85L6.82 3.85L6.82 3.85Q6.52 4.79 5.94 5.89L5.94 5.89L5.94 5.89Q5.42 6.87 4.78 7.81L4.78 7.81L4.78 7.81Q4.14 8.75 3.39 9.63L3.39 9.63L3.39 9.63Q3.89 9.60 4.38 9.60L4.38 9.60L4.38 9.60Q4.87 9.60 5.33 9.60L5.33 9.60L5.33 9.60Q5.59 9.60 5.94 9.63L5.94 9.63L5.94 9.63Q6.30 9.66 6.79 9.72L6.79 9.72L6.79 9.72Q7.07 9.76 7.27 9.79L7.27 9.79L7.27 9.79Q7.46 9.81 7.62 9.84ZM17.89 5.73L17.89 5.73L17.89 5.73Q18.23 5.88 18.62 6.10L18.62 6.10L18.62 6.10Q19.01 6.33 19.33 6.66L19.33 6.66L19.33 6.66Q19.66 6.99 19.87 7.41L19.87 7.41L19.87 7.41Q20.09 7.83 20.09 8.34L20.09 8.34L20.09 8.34Q20.09 8.78 19.93 9.29L19.93 9.29L19.93 9.29Q19.77 9.80 19.29 10.18L19.29 10.18L19.29 10.18Q19.03 10.37 18.58 10.58L18.58 10.58L18.58 10.58Q18.13 10.78 17.61 10.82L17.61 10.82L17.61 10.82Q17.09 10.86 16.53 10.78L16.53 10.78L16.53 10.78Q15.96 10.70 15.47 10.57L15.47 10.57L15.47 10.57Q14.45 10.35 13.55 9.83L13.55 9.83L13.55 9.83Q13.31 9.70 13.22 9.56L13.22 9.56L13.22 9.56Q13.09 9.39 13.09 9.18L13.09 9.18L13.09 9.18Q13.09 9.10 13.13 8.97L13.13 8.97L13.13 8.97Q13.17 8.85 13.37 8.76L13.37 8.76L13.37 8.76Q13.43 8.74 13.45 8.74L13.45 8.74L13.45 8.74Q13.52 8.74 13.57 8.78L13.57 8.78L13.57 8.78Q13.61 8.82 13.69 8.90L13.69 8.90L13.69 8.90Q13.76 8.96 13.83 9.03L13.83 9.03L13.83 9.03Q13.89 9.10 14.00 9.21L14.00 9.21L14.00 9.21Q14.03 9.23 14.21 9.29L14.21 9.29L14.21 9.29Q14.39 9.35 14.95 9.49L14.95 9.49L14.95 9.49Q15.61 9.66 16.23 9.80L16.23 9.80L16.23 9.80Q16.84 9.94 17.42 9.83L17.42 9.83L17.42 9.83Q17.98 9.70 18.29 9.49L18.29 9.49L18.29 9.49Q18.61 9.28 18.75 9.06L18.75 9.06L18.75 9.06Q18.89 8.85 18.91 8.66L18.91 8.66L18.91 8.66Q18.94 8.47 18.94 8.40L18.94 8.40L18.94 8.40Q18.94 8.15 18.78 7.89L18.78 7.89L18.78 7.89Q18.62 7.63 18.42 7.42L18.42 7.42L18.42 7.42Q18.21 7.21 18.03 7.07L18.03 7.07L18.03 7.07Q17.84 6.93 17.78 6.90L17.78 6.90L17.78 6.90Q17.60 6.80 17.16 6.67L17.16 6.67L17.16 6.67Q16.73 6.54 16.21 6.29L16.21 6.29L16.21 6.29Q15.68 6.05 15.12 5.64L15.12 5.64L15.12 5.64Q14.56 5.24 14.13 4.59L14.13 4.59L14.13 4.59Q13.96 4.35 13.88 4.02L13.88 4.02L13.88 4.02Q13.80 3.70 13.78 3.37L13.78 3.37L13.78 3.37Q13.76 3.04 13.79 2.74L13.79 2.74L13.79 2.74Q13.82 2.45 13.86 2.25L13.86 2.25L13.86 2.25Q14.00 1.65 14.31 1.02L14.31 1.02L14.31 1.02Q14.62 0.39 15.01-0.06L15.01-0.06L15.01-0.06Q15.40-0.50 15.87-0.76L15.87-0.76L15.87-0.76Q16.34-1.02 16.73-1.02L16.73-1.02L16.73-1.02Q17.26-1.02 17.75-0.83L17.75-0.83L17.75-0.83Q18.24-0.63 18.66-0.18L18.66-0.18L18.66-0.18Q19.05 0.22 19.23 0.68L19.23 0.68L19.23 0.68Q19.40 1.13 19.43 1.60L19.43 1.60L19.43 1.60Q19.45 1.88 19.45 1.94L19.45 1.94L19.45 1.94Q19.46 2.00 19.46 2.01L19.46 2.01L19.46 2.01Q19.46 2.02 19.45 2.06L19.45 2.06L19.45 2.06Q19.45 2.10 19.45 2.35L19.45 2.35L19.45 2.35Q19.45 2.90 19.35 3.15L19.35 3.15L19.35 3.15Q19.26 3.39 19.14 3.46L19.14 3.46L19.14 3.46Q19.01 3.53 18.93 3.53L18.93 3.53L18.93 3.53Q18.75 3.53 18.65 3.45L18.65 3.45L18.65 3.45Q18.55 3.37 18.49 3.30L18.49 3.30L18.49 3.30Q18.38 3.11 18.38 2.77L18.38 2.77L18.38 2.77Q18.38 2.48 18.38 2.39L18.38 2.39L18.38 2.39Q18.38 2.30 18.38 2.22L18.38 2.22L18.38 2.22Q18.37 2.14 18.35 2.02L18.35 2.02L18.35 2.02Q18.34 1.89 18.31 1.54L18.31 1.54L18.31 1.54Q18.28 1.25 18.16 1.03L18.16 1.03L18.16 1.03Q18.05 0.81 17.92 0.63L17.92 0.63L17.92 0.63Q17.82 0.50 17.64 0.39L17.64 0.39L17.64 0.39Q17.46 0.28 17.23 0.22L17.23 0.22L17.23 0.22Q17.01 0.17 16.78 0.18L16.78 0.18L16.78 0.18Q16.55 0.20 16.37 0.32L16.37 0.32L16.37 0.32Q16.13 0.48 15.94 0.64L15.94 0.64L15.94 0.64Q15.75 0.81 15.48 1.23L15.48 1.23L15.48 1.23Q15.33 1.47 15.23 1.76L15.23 1.76L15.23 1.76Q15.13 2.06 15.06 2.51L15.06 2.51L15.06 2.51Q15.04 2.63 15.02 2.83L15.02 2.83L15.02 2.83Q15.01 3.04 15.02 3.27L15.02 3.27L15.02 3.27Q15.04 3.50 15.09 3.75L15.09 3.75L15.09 3.75Q15.15 3.99 15.29 4.19L15.29 4.19L15.29 4.19Q15.61 4.65 15.88 4.87L15.88 4.87L15.88 4.87Q16.14 5.08 16.42 5.19L16.42 5.19L16.42 5.19Q16.70 5.31 17.05 5.40L17.05 5.40L17.05 5.40Q17.40 5.50 17.89 5.73ZM25.87 5.68L25.87 5.68L25.87 5.68Q25.98 5.68 26.09 5.77L26.09 5.77L26.09 5.77Q26.19 5.85 26.19 6.05L26.19 6.05L26.19 6.05Q26.19 6.59 25.89 7.28L25.89 7.28L25.89 7.28Q25.54 8.09 25.07 8.09L25.07 8.09L25.07 8.09Q24.81 8.09 24.47 7.97L24.47 7.97L24.47 7.97Q24.40 8.30 24.35 8.65L24.35 8.65L24.35 8.65Q24.29 9.00 24.22 9.37L24.22 9.37L24.22 9.38L24.22 9.39L24.22 9.39Q24.05 9.94 23.79 10.11L23.79 10.11L23.79 10.11Q23.52 10.28 23.30 10.28L23.30 10.28L23.30 10.28Q22.75 10.28 22.40 9.52L22.40 9.52L22.40 9.52Q22.27 9.93 22.06 10.25L22.06 10.25L22.06 10.25Q21.84 10.57 21.48 10.57L21.48 10.57L21.48 10.57Q21.28 10.57 21.05 10.44L21.05 10.44L21.05 10.44Q20.82 10.32 20.66 9.91L20.66 9.91L20.66 9.91Q20.44 9.37 20.44 8.25L20.44 8.25L20.44 8.25Q20.44 8.23 20.45 8.16L20.45 8.16L20.45 8.16Q20.45 8.09 20.46 7.92L20.46 7.92L20.46 7.92Q20.47 7.76 20.50 7.47L20.50 7.47L20.50 7.47Q20.52 7.18 20.57 6.72L20.57 6.72L20.57 6.72Q20.61 6.20 20.64 5.91L20.64 5.91L20.64 5.91Q20.68 5.61 20.70 5.47L20.70 5.47L20.70 5.47Q20.72 5.32 20.73 5.28L20.73 5.28L20.73 5.28Q20.73 5.24 20.75 5.21L20.75 5.21L20.75 5.21Q20.87 4.90 21.21 4.90L21.21 4.90L21.21 4.90Q21.46 4.90 21.78 5.22L21.78 5.22L21.87 5.31L21.83 5.43L21.83 5.43Q21.28 6.82 21.28 8.64L21.28 8.64L21.28 8.64Q21.28 9.51 21.49 9.69L21.49 9.69L21.49 9.69Q21.71 9.31 21.88 8.68L21.88 8.68L21.88 8.68Q21.95 8.37 21.99 8.13L21.99 8.13L21.99 8.13Q22.02 7.88 22.02 7.69L22.02 7.69L22.02 7.69Q22.02 7.59 22.04 7.38L22.04 7.38L22.04 7.38Q22.06 7.17 22.09 6.85L22.09 6.85L22.09 6.85Q22.12 6.52 22.14 6.32L22.14 6.32L22.14 6.32Q22.16 6.12 22.16 6.01L22.16 6.01L22.16 6.01Q22.16 5.98 22.16 5.95L22.16 5.95L22.16 5.95Q22.15 5.92 22.15 5.89L22.15 5.89L22.15 5.87L22.15 5.85L22.06 5.54L22.13 5.46L22.13 5.46Q22.32 5.25 22.67 5.25L22.67 5.25L22.67 5.25Q23.18 5.25 23.18 5.73L23.18 5.73L23.18 5.73Q23.18 5.91 23.11 6.10L23.11 6.10L23.11 6.10Q23.03 6.40 23.03 6.45L23.03 6.45L23.03 6.45Q22.97 7.08 22.95 7.47L22.95 7.47L22.95 7.47Q22.92 7.85 22.92 8.01L22.92 8.01L22.92 8.01Q22.92 8.23 22.94 8.41L22.94 8.41L22.94 8.41Q22.96 8.60 22.99 8.75L22.99 8.75L22.99 8.75Q23.03 8.90 23.07 9.06L23.07 9.06L23.07 9.06Q23.10 9.23 23.13 9.38L23.13 9.38L23.13 9.38Q23.16 9.45 23.23 9.48L23.23 9.48L23.23 9.48Q23.27 9.44 23.37 9.21L23.37 9.21L23.37 9.21Q23.46 8.97 23.62 8.26L23.62 8.26L23.62 8.26Q23.79 7.46 23.79 7.18L23.79 7.18L23.79 7.18Q23.79 7.15 23.77 7.03L23.77 7.03L23.77 7.03Q23.76 6.90 23.70 6.58L23.70 6.58L23.70 6.58Q23.62 6.06 23.62 5.81L23.62 5.81L23.62 5.81Q23.62 5.31 23.63 5.17L23.63 5.17L23.63 5.17Q23.63 5.03 23.63 5.00L23.63 5.00L23.63 5.00Q23.70 4.48 24.01 4.35L24.01 4.35L24.09 4.31L24.18 4.35L24.18 4.35Q24.57 4.54 24.60 4.97L24.60 4.97L24.67 7.15L24.67 7.15Q24.68 7.18 24.70 7.20L24.70 7.20L24.70 7.20Q24.72 7.22 24.85 7.22L24.85 7.22L24.85 7.22Q24.88 7.22 24.94 7.22L24.94 7.22L24.94 7.22Q25.00 7.21 25.07 7.15L25.07 7.15L25.07 7.15Q25.14 7.08 25.22 6.96L25.22 6.96L25.22 6.96Q25.30 6.83 25.35 6.59L25.35 6.59L25.35 6.59Q25.47 6.19 25.50 6.05L25.50 6.05L25.50 6.05Q25.54 5.92 25.55 5.89L25.55 5.89L25.55 5.89Q25.62 5.68 25.87 5.68ZM29.01 5.49L29.01 5.49L29.01 5.49Q29.19 5.49 29.18 5.59L29.18 5.59L29.18 5.59Q29.16 5.70 29.16 5.87L29.16 5.87L29.16 5.87Q29.16 5.89 29.15 5.96L29.15 5.96L29.15 5.96Q29.15 6.02 29.12 6.13L29.12 6.13L29.12 6.13Q29.09 6.24 29.05 6.44L29.05 6.44L29.05 6.44Q29.01 6.64 28.92 6.93L28.92 6.93L28.92 6.93Q28.66 8.01 28.35 8.83L28.35 8.83L28.35 8.83Q28.20 9.24 28.05 9.53L28.05 9.53L28.05 9.53Q27.90 9.81 27.76 10.01L27.76 10.01L27.76 10.01Q27.38 10.54 26.81 10.54L26.81 10.54L26.81 10.54Q26.17 10.54 25.70 9.87L25.70 9.87L25.70 9.87Q25.28 9.24 25.28 8.34L25.28 8.34L25.28 8.34Q25.28 7.62 25.39 6.87L25.39 6.87L25.39 6.87Q25.49 6.13 25.66 5.54L25.66 5.54L25.66 5.54Q25.72 5.33 25.79 5.11L25.79 5.11L25.79 5.11Q25.87 4.89 25.98 4.70L25.98 4.70L25.98 4.70Q26.10 4.51 26.24 4.39L26.24 4.39L26.24 4.39Q26.38 4.27 26.57 4.27L26.57 4.27L26.57 4.27Q26.96 4.27 27.30 4.56L27.30 4.56L27.30 4.56Q27.45 4.72 27.55 4.94L27.55 4.94L27.55 4.94Q27.65 5.17 27.65 5.33L27.65 5.33L27.65 5.33Q27.65 5.61 27.59 5.95L27.59 5.95L27.59 5.95Q27.54 6.29 27.45 6.62L27.45 6.62L27.45 6.62Q27.37 6.94 27.27 7.22L27.27 7.22L27.27 7.22Q27.16 7.49 27.05 7.66L27.05 7.66L27.05 7.66Q26.98 7.78 26.85 7.91L26.85 7.91L26.85 7.91Q26.73 8.04 26.59 8.11L26.59 8.11L26.59 8.11Q26.46 8.19 26.34 8.20L26.34 8.20L26.34 8.20Q26.22 8.20 26.14 8.09L26.14 8.09L26.14 8.09Q26.11 8.20 26.12 8.39L26.12 8.39L26.12 8.39Q26.14 8.57 26.17 8.74L26.17 8.74L26.17 8.74Q26.19 8.92 26.24 9.07L26.24 9.07L26.24 9.07Q26.28 9.23 26.31 9.30L26.31 9.30L26.31 9.30Q26.42 9.53 26.60 9.65L26.60 9.65L26.60 9.65Q26.78 9.77 26.85 9.77L26.85 9.77L26.85 9.77Q26.99 9.77 27.13 9.56L27.13 9.56L27.13 9.56Q27.26 9.35 27.47 9.03L27.47 9.03L27.47 9.03Q27.71 8.65 28 7.97L28 7.97L28 7.97Q28.29 7.28 28.53 6.50L28.53 6.50L28.53 6.50Q28.57 6.34 28.61 6.20L28.61 6.20L28.61 6.20Q28.64 6.05 28.69 5.89L28.69 5.89L28.69 5.89Q28.76 5.49 29.01 5.49ZM26.81 5.19L26.81 5.19L26.81 5.19Q26.70 5.50 26.61 5.75L26.61 5.75L26.61 5.75Q26.52 5.99 26.43 6.22L26.43 6.22L26.43 6.22Q26.35 6.45 26.29 6.69L26.29 6.69L26.29 6.69Q26.24 6.93 26.22 7.22L26.22 7.22L26.22 7.22Q26.40 7.21 26.54 6.97L26.54 6.97L26.54 6.97Q26.67 6.73 26.71 6.54L26.71 6.54L26.71 6.54Q26.77 6.26 26.83 5.97L26.83 5.97L26.83 5.97Q26.89 5.68 26.89 5.38L26.89 5.38L26.89 5.38Q26.89 5.31 26.87 5.20L26.87 5.20L26.87 5.20Q26.85 5.10 26.81 5.19ZM32.09 5.49L32.09 5.49L32.09 5.49Q32.27 5.49 32.26 5.59L32.26 5.59L32.26 5.59Q32.24 5.70 32.24 5.87L32.24 5.87L32.24 5.87Q32.24 5.89 32.23 5.96L32.23 5.96L32.23 5.96Q32.23 6.02 32.20 6.13L32.20 6.13L32.20 6.13Q32.17 6.24 32.13 6.44L32.13 6.44L32.13 6.44Q32.09 6.64 32.00 6.93L32.00 6.93L32.00 6.93Q31.74 8.01 31.43 8.83L31.43 8.83L31.43 8.83Q31.28 9.24 31.13 9.53L31.13 9.53L31.13 9.53Q30.98 9.81 30.84 10.01L30.84 10.01L30.84 10.01Q30.46 10.54 29.89 10.54L29.89 10.54L29.89 10.54Q29.25 10.54 28.78 9.87L28.78 9.87L28.78 9.87Q28.36 9.24 28.36 8.34L28.36 8.34L28.36 8.34Q28.36 7.62 28.47 6.87L28.47 6.87L28.47 6.87Q28.57 6.13 28.74 5.54L28.74 5.54L28.74 5.54Q28.80 5.33 28.88 5.11L28.88 5.11L28.88 5.11Q28.95 4.89 29.06 4.70L29.06 4.70L29.06 4.70Q29.18 4.51 29.32 4.39L29.32 4.39L29.32 4.39Q29.46 4.27 29.65 4.27L29.65 4.27L29.65 4.27Q30.04 4.27 30.38 4.56L30.38 4.56L30.38 4.56Q30.53 4.72 30.63 4.94L30.63 4.94L30.63 4.94Q30.73 5.17 30.73 5.33L30.73 5.33L30.73 5.33Q30.73 5.61 30.67 5.95L30.67 5.95L30.67 5.95Q30.62 6.29 30.53 6.62L30.53 6.62L30.53 6.62Q30.45 6.94 30.35 7.22L30.35 7.22L30.35 7.22Q30.24 7.49 30.13 7.66L30.13 7.66L30.13 7.66Q30.06 7.78 29.93 7.91L29.93 7.91L29.93 7.91Q29.81 8.04 29.67 8.11L29.67 8.11L29.67 8.11Q29.54 8.19 29.42 8.20L29.42 8.20L29.42 8.20Q29.30 8.20 29.22 8.09L29.22 8.09L29.22 8.09Q29.19 8.20 29.20 8.39L29.20 8.39L29.20 8.39Q29.22 8.57 29.25 8.74L29.25 8.74L29.25 8.74Q29.27 8.92 29.32 9.07L29.32 9.07L29.32 9.07Q29.36 9.23 29.39 9.30L29.39 9.30L29.39 9.30Q29.50 9.53 29.68 9.65L29.68 9.65L29.68 9.65Q29.86 9.77 29.93 9.77L29.93 9.77L29.93 9.77Q30.07 9.77 30.21 9.56L30.21 9.56L30.21 9.56Q30.34 9.35 30.55 9.03L30.55 9.03L30.55 9.03Q30.79 8.65 31.08 7.97L31.08 7.97L31.08 7.97Q31.37 7.28 31.61 6.50L31.61 6.50L31.61 6.50Q31.65 6.34 31.69 6.20L31.69 6.20L31.69 6.20Q31.72 6.05 31.77 5.89L31.77 5.89L31.77 5.89Q31.84 5.49 32.09 5.49ZM29.89 5.19L29.89 5.19L29.89 5.19Q29.78 5.50 29.69 5.75L29.69 5.75L29.69 5.75Q29.60 5.99 29.51 6.22L29.51 6.22L29.51 6.22Q29.43 6.45 29.37 6.69L29.37 6.69L29.37 6.69Q29.32 6.93 29.30 7.22L29.30 7.22L29.30 7.22Q29.48 7.21 29.62 6.97L29.62 6.97L29.62 6.97Q29.75 6.73 29.79 6.54L29.79 6.54L29.79 6.54Q29.85 6.26 29.91 5.97L29.91 5.97L29.91 5.97Q29.97 5.68 29.97 5.38L29.97 5.38L29.97 5.38Q29.97 5.31 29.95 5.20L29.95 5.20L29.95 5.20Q29.93 5.10 29.89 5.19ZM34.79 2.66L34.79 2.66L34.79 2.66Q34.99 2.69 34.99 2.87L34.99 2.87L34.99 2.97L34.99 2.97Q34.99 3.04 34.94 3.09L34.94 3.09L34.94 3.09Q34.90 3.15 34.76 3.21L34.76 3.21L34.76 3.21Q34.62 3.26 34.13 3.35L34.13 3.35L34.13 3.35Q33.81 3.42 33.60 3.43L33.60 3.43L33.60 3.43Q33.39 3.44 33.24 3.44L33.24 3.44L32.80 3.47L32.80 3.47Q32.77 3.67 32.74 4.09L32.74 4.09L32.74 4.09Q32.70 4.52 32.63 5.15L32.63 5.15L32.63 5.15Q32.58 5.68 32.55 6.02L32.55 6.02L32.55 6.02Q32.52 6.36 32.50 6.55L32.50 6.55L32.50 6.55Q32.48 6.75 32.47 6.83L32.47 6.83L32.47 6.83Q32.47 6.92 32.47 6.94L32.47 6.94L32.47 6.94Q32.47 7.62 32.47 8.03L32.47 8.03L32.47 8.03Q32.48 8.44 32.49 8.60L32.49 8.60L32.49 8.60Q32.54 9.04 32.61 9.18L32.61 9.18L32.61 9.18Q32.69 9.32 32.72 9.32L32.72 9.32L32.72 9.32Q32.77 9.30 32.83 9.23L32.83 9.23L32.83 9.23Q32.89 9.16 32.96 9.03L32.96 9.03L32.96 9.03Q33.04 8.90 33.15 8.67L33.15 8.67L33.15 8.67Q33.31 8.29 33.48 7.71L33.48 7.71L33.48 7.71Q33.66 7.13 33.84 6.36L33.84 6.36L33.84 6.36Q33.88 6.17 33.92 6.05L33.92 6.05L33.92 6.05Q33.96 5.92 33.99 5.82L33.99 5.82L33.99 5.82Q34.02 5.75 34.08 5.64L34.08 5.64L34.08 5.64Q34.15 5.53 34.29 5.53L34.29 5.53L34.29 5.53Q34.41 5.53 34.52 5.62L34.52 5.62L34.52 5.62Q34.64 5.71 34.64 5.95L34.64 5.95L34.64 5.95Q34.64 6.22 34.51 6.75L34.51 6.75L34.51 6.75Q34.38 7.29 34.10 8.13L34.10 8.13L34.10 8.13Q33.74 9.21 33.40 9.72L33.40 9.72L33.40 9.72Q33.05 10.23 32.68 10.23L32.68 10.23L32.68 10.23Q32.14 10.23 31.82 9.42L31.82 9.42L31.82 9.42Q31.54 8.69 31.54 7.62L31.54 7.62L31.54 7.62Q31.54 7.27 31.63 6.27L31.63 6.27L31.63 6.27Q31.72 5.28 31.92 3.50L31.92 3.50L31.92 3.50Q31.79 3.53 31.68 3.49L31.68 3.49L31.68 3.49Q31.57 3.46 31.53 3.43L31.53 3.43L31.53 3.43Q31.50 3.42 31.46 3.37L31.46 3.37L31.46 3.37Q31.42 3.33 31.30 3.29L31.30 3.29L31.30 3.29Q31.11 3.22 31.06 3.12L31.06 3.12L31.06 3.12Q31.01 3.01 31.01 2.94L31.01 2.94L31.01 2.94Q31.01 2.90 31.06 2.79L31.06 2.79L31.06 2.79Q31.11 2.69 31.39 2.63L31.39 2.63L31.39 2.63Q31.47 2.62 31.53 2.61L31.53 2.61L31.53 2.61Q31.58 2.60 31.64 2.60L31.64 2.60L31.64 2.60Q31.70 2.59 31.77 2.58L31.77 2.58L31.77 2.58Q31.85 2.58 31.98 2.56L31.98 2.56L31.98 2.56Q31.99 2.41 32.00 2.18L32.00 2.18L32.00 2.18Q32.02 1.96 32.03 1.67L32.03 1.67L31.96 1.43L31.96 1.43Q31.96 1.34 31.98 1.30L31.98 1.30L31.98 1.30Q32.09 1.08 32.33 1.08L32.33 1.08L32.33 1.08Q32.58 1.08 33.04 1.37L33.04 1.37L33.04 1.37Q33.12 1.44 33.12 1.54L33.12 1.54L33.12 1.86L33.12 1.90L33.12 1.90Q33.10 2.06 33.06 2.22L33.06 2.22L33.06 2.22Q33.03 2.38 32.98 2.58L32.98 2.58L32.98 2.58Q33.08 2.58 33.10 2.58L33.10 2.58L33.10 2.58Q33.12 2.58 33.14 2.58L33.14 2.58L33.14 2.58Q33.15 2.59 33.21 2.60L33.21 2.60L33.21 2.60Q33.26 2.60 33.46 2.60L33.46 2.60L33.46 2.60Q33.64 2.60 33.75 2.61L33.75 2.61L33.75 2.61Q33.85 2.62 33.97 2.63L33.97 2.63L33.97 2.63Q34.09 2.63 34.27 2.64L34.27 2.64L34.27 2.64Q34.45 2.65 34.79 2.66ZM42.42 5.73L42.42 5.73L42.42 5.73Q42.76 5.88 43.15 6.10L43.15 6.10L43.15 6.10Q43.54 6.33 43.86 6.66L43.86 6.66L43.86 6.66Q44.18 6.99 44.40 7.41L44.40 7.41L44.40 7.41Q44.62 7.83 44.62 8.34L44.62 8.34L44.62 8.34Q44.62 8.78 44.46 9.29L44.46 9.29L44.46 9.29Q44.30 9.80 43.82 10.18L43.82 10.18L43.82 10.18Q43.55 10.37 43.11 10.58L43.11 10.58L43.11 10.58Q42.66 10.78 42.14 10.82L42.14 10.82L42.14 10.82Q41.62 10.86 41.06 10.78L41.06 10.78L41.06 10.78Q40.49 10.70 40.00 10.57L40.00 10.57L40.00 10.57Q38.98 10.35 38.08 9.83L38.08 9.83L38.08 9.83Q37.84 9.70 37.74 9.56L37.74 9.56L37.74 9.56Q37.62 9.39 37.62 9.18L37.62 9.18L37.62 9.18Q37.62 9.10 37.66 8.97L37.66 8.97L37.66 8.97Q37.70 8.85 37.90 8.76L37.90 8.76L37.90 8.76Q37.95 8.74 37.98 8.74L37.98 8.74L37.98 8.74Q38.05 8.74 38.09 8.78L38.09 8.78L38.09 8.78Q38.14 8.82 38.22 8.90L38.22 8.90L38.22 8.90Q38.29 8.96 38.35 9.03L38.35 9.03L38.35 9.03Q38.42 9.10 38.53 9.21L38.53 9.21L38.53 9.21Q38.56 9.23 38.74 9.29L38.74 9.29L38.74 9.29Q38.92 9.35 39.48 9.49L39.48 9.49L39.48 9.49Q40.14 9.66 40.75 9.80L40.75 9.80L40.75 9.80Q41.37 9.94 41.94 9.83L41.94 9.83L41.94 9.83Q42.50 9.70 42.82 9.49L42.82 9.49L42.82 9.49Q43.13 9.28 43.27 9.06L43.27 9.06L43.27 9.06Q43.41 8.85 43.44 8.66L43.44 8.66L43.44 8.66Q43.47 8.47 43.47 8.40L43.47 8.40L43.47 8.40Q43.47 8.15 43.31 7.89L43.31 7.89L43.31 7.89Q43.15 7.63 42.95 7.42L42.95 7.42L42.95 7.42Q42.74 7.21 42.55 7.07L42.55 7.07L42.55 7.07Q42.36 6.93 42.31 6.90L42.31 6.90L42.31 6.90Q42.13 6.80 41.69 6.67L41.69 6.67L41.69 6.67Q41.26 6.54 40.73 6.29L40.73 6.29L40.73 6.29Q40.21 6.05 39.65 5.64L39.65 5.64L39.65 5.64Q39.09 5.24 38.65 4.59L38.65 4.59L38.65 4.59Q38.49 4.35 38.41 4.02L38.41 4.02L38.41 4.02Q38.33 3.70 38.31 3.37L38.31 3.37L38.31 3.37Q38.29 3.04 38.32 2.74L38.32 2.74L38.32 2.74Q38.35 2.45 38.39 2.25L38.39 2.25L38.39 2.25Q38.53 1.65 38.84 1.02L38.84 1.02L38.84 1.02Q39.14 0.39 39.54-0.06L39.54-0.06L39.54-0.06Q39.93-0.50 40.40-0.76L40.40-0.76L40.40-0.76Q40.87-1.02 41.26-1.02L41.26-1.02L41.26-1.02Q41.79-1.02 42.28-0.83L42.28-0.83L42.28-0.83Q42.77-0.63 43.19-0.18L43.19-0.18L43.19-0.18Q43.58 0.22 43.76 0.68L43.76 0.68L43.76 0.68Q43.93 1.13 43.96 1.60L43.96 1.60L43.96 1.60Q43.97 1.88 43.98 1.94L43.98 1.94L43.98 1.94Q43.99 2.00 43.99 2.01L43.99 2.01L43.99 2.01Q43.99 2.02 43.98 2.06L43.98 2.06L43.98 2.06Q43.97 2.10 43.97 2.35L43.97 2.35L43.97 2.35Q43.97 2.90 43.88 3.15L43.88 3.15L43.88 3.15Q43.79 3.39 43.67 3.46L43.67 3.46L43.67 3.46Q43.54 3.53 43.46 3.53L43.46 3.53L43.46 3.53Q43.27 3.53 43.18 3.45L43.18 3.45L43.18 3.45Q43.08 3.37 43.02 3.30L43.02 3.30L43.02 3.30Q42.91 3.11 42.91 2.77L42.91 2.77L42.91 2.77Q42.91 2.48 42.91 2.39L42.91 2.39L42.91 2.39Q42.91 2.30 42.90 2.22L42.90 2.22L42.90 2.22Q42.90 2.14 42.88 2.02L42.88 2.02L42.88 2.02Q42.87 1.89 42.84 1.54L42.84 1.54L42.84 1.54Q42.81 1.25 42.69 1.03L42.69 1.03L42.69 1.03Q42.57 0.81 42.45 0.63L42.45 0.63L42.45 0.63Q42.35 0.50 42.17 0.39L42.17 0.39L42.17 0.39Q41.99 0.28 41.76 0.22L41.76 0.22L41.76 0.22Q41.54 0.17 41.31 0.18L41.31 0.18L41.31 0.18Q41.08 0.20 40.89 0.32L40.89 0.32L40.89 0.32Q40.66 0.48 40.47 0.64L40.47 0.64L40.47 0.64Q40.28 0.81 40.01 1.23L40.01 1.23L40.01 1.23Q39.86 1.47 39.76 1.76L39.76 1.76L39.76 1.76Q39.66 2.06 39.59 2.51L39.59 2.51L39.59 2.51Q39.56 2.63 39.55 2.83L39.55 2.83L39.55 2.83Q39.54 3.04 39.55 3.27L39.55 3.27L39.55 3.27Q39.56 3.50 39.62 3.75L39.62 3.75L39.62 3.75Q39.68 3.99 39.82 4.19L39.82 4.19L39.82 4.19Q40.14 4.65 40.40 4.87L40.40 4.87L40.40 4.87Q40.67 5.08 40.95 5.19L40.95 5.19L40.95 5.19Q41.23 5.31 41.58 5.40L41.58 5.40L41.58 5.40Q41.93 5.50 42.42 5.73ZM46.93 9.66L46.93 9.66L46.93 9.66Q46.56 10.44 46.03 10.44L46.03 10.44L46.03 10.44Q45.85 10.44 45.63 10.35L45.63 10.35L45.63 10.35Q45.42 10.25 45.22 9.93L45.22 9.93L45.22 9.93Q45.09 9.69 45.02 9.40L45.02 9.40L45.02 9.40Q44.95 9.11 44.95 8.75L44.95 8.75L44.95 8.75Q44.95 8.44 45.08 7.07L45.08 7.07L45.08 7.07Q45.15 6.40 45.18 5.99L45.18 5.99L45.18 5.99Q45.21 5.57 45.21 5.43L45.21 5.43L45.21 5.43Q45.21 5.29 45.21 5.22L45.21 5.22L45.21 5.22Q45.21 5.15 45.25 5.12L45.25 5.12L45.25 5.12Q45.29 5.10 45.40 5.11L45.40 5.11L45.40 5.11Q45.50 5.12 45.71 5.17L45.71 5.17L45.71 5.17Q46.10 5.24 46.21 5.35L46.21 5.35L46.21 5.35Q46.31 5.46 46.31 5.54L46.31 5.54L46.31 5.54Q46.31 5.59 46.29 5.67L46.29 5.67L46.29 5.67Q46.27 5.75 46.24 5.85L46.24 5.85L46.24 5.85Q46.21 5.95 46.19 6.03L46.19 6.03L46.19 6.03Q46.17 6.12 46.17 6.15L46.17 6.15L46.17 6.15Q46.14 6.26 46.10 6.55L46.10 6.55L46.10 6.55Q46.05 6.85 45.98 7.17L45.98 7.17L45.98 7.17Q45.89 7.62 45.86 7.99L45.86 7.99L45.86 7.99Q45.82 8.36 45.82 8.78L45.82 8.78L45.82 8.78Q45.82 8.85 45.83 8.97L45.83 8.97L45.83 8.97Q45.84 9.10 45.86 9.23L45.86 9.23L45.86 9.23Q45.88 9.37 45.93 9.46L45.93 9.46L45.93 9.46Q45.98 9.56 46.06 9.58L46.06 9.58L46.06 9.58Q46.09 9.56 46.17 9.44L46.17 9.44L46.17 9.44Q46.26 9.32 46.40 8.96L46.40 8.96L46.40 8.96Q46.42 8.88 46.59 8.50L46.59 8.50L46.59 8.50Q46.76 8.12 46.97 7.45L46.97 7.45L46.97 7.45Q47.04 7.22 47.15 6.90L47.15 6.90L47.15 6.90Q47.26 6.58 47.39 6.13L47.39 6.13L47.39 6.13Q47.40 6.08 47.43 5.99L47.43 5.99L47.43 5.99Q47.46 5.89 47.50 5.81L47.50 5.81L47.50 5.81Q47.54 5.73 47.61 5.67L47.61 5.67L47.61 5.67Q47.68 5.61 47.80 5.61L47.80 5.61L47.80 5.61Q47.84 5.61 47.90 5.68L47.90 5.68L47.90 5.68Q47.96 5.74 47.96 6.03L47.96 6.03L47.96 6.03Q47.96 6.10 47.95 6.22L47.95 6.22L47.95 6.22Q47.94 6.34 47.88 6.59L47.88 6.59L47.88 6.59Q47.82 6.83 47.72 7.21L47.72 7.21L47.72 7.21Q47.61 7.59 47.43 8.18L47.43 8.18L47.43 8.18Q47.24 8.81 47.12 9.16L47.12 9.16L47.12 9.16Q47.00 9.52 46.93 9.66ZM46.06 4.55L46.06 4.55L46.06 4.55Q45.70 4.55 45.49 4.27L45.49 4.27L45.49 4.27Q45.26 4.00 45.26 3.72L45.26 3.72L45.26 3.72Q45.26 3.49 45.49 3.26L45.49 3.26L45.49 3.26Q45.74 3.04 45.93 3.04L45.93 3.04L45.93 3.04Q46.27 3.04 46.45 3.23L46.45 3.23L46.45 3.23Q46.63 3.43 46.63 3.79L46.63 3.79L46.63 3.79Q46.63 4.05 46.57 4.20L46.57 4.20L46.57 4.20Q46.51 4.35 46.41 4.43L46.41 4.43L46.41 4.43Q46.31 4.51 46.21 4.53L46.21 4.53L46.21 4.53Q46.12 4.55 46.06 4.55ZM48.52 5.49L48.52 5.49L48.52 5.49Q48.52 5.77 48.62 6.19L48.62 6.19L48.62 6.19Q48.71 6.61 48.89 7.20L48.89 7.20L48.89 7.20Q49.08 7.81 49.17 8.24L49.17 8.24L49.17 8.24Q49.25 8.67 49.25 8.93L49.25 8.93L49.25 8.93Q49.25 9.66 48.94 10.11L48.94 10.11L48.94 10.11Q48.59 10.63 48.09 10.63L48.09 10.63L48.09 10.63Q47.56 10.63 47.14 10.16L47.14 10.16L47.14 10.16Q46.84 9.86 46.84 9.55L46.84 9.55L46.84 9.55Q46.84 9.11 47.12 9.04L47.12 9.04L47.12 9.04Q47.14 9.04 47.15 9.04L47.15 9.04L47.15 9.04Q47.15 9.03 47.17 9.03L47.17 9.03L47.17 9.03Q47.24 9.03 47.35 9.09L47.35 9.09L47.35 9.09Q47.46 9.16 47.47 9.44L47.47 9.44L47.47 9.44Q47.67 9.84 47.84 9.84L47.84 9.84L47.84 9.84Q47.91 9.84 48.00 9.81L48.00 9.81L48.00 9.81Q48.09 9.77 48.17 9.62L48.17 9.62L48.17 9.62Q48.33 9.34 48.33 8.88L48.33 8.88L48.33 8.88Q48.33 8.33 48.05 7.36L48.05 7.36L48.05 7.35L48.05 7.35Q48.02 7.28 48.00 7.19L48.00 7.19L48.00 7.19Q47.98 7.10 47.95 7.01L47.95 7.01L47.95 7.01Q47.89 7.18 47.85 7.36L47.85 7.36L47.85 7.36Q47.81 7.53 47.75 7.70L47.75 7.70L47.75 7.71L47.75 7.71Q47.73 7.77 47.68 7.88L47.68 7.88L47.68 7.88Q47.64 7.99 47.57 8.10L47.57 8.10L47.57 8.10Q47.50 8.20 47.40 8.28L47.40 8.28L47.40 8.28Q47.31 8.36 47.17 8.36L47.17 8.36L47.17 8.36Q47.05 8.36 46.96 8.30L46.96 8.30L46.96 8.30Q46.80 8.23 46.86 8.08L46.86 8.08L46.86 8.08Q46.96 7.69 47.05 7.29L47.05 7.29L47.05 7.29Q47.15 6.90 47.25 6.52L47.25 6.52L47.25 6.52Q47.36 6.15 47.40 5.72L47.40 5.72L47.40 5.72Q47.45 5.29 47.45 4.82L47.45 4.82L47.45 4.82Q47.45 4.54 47.60 4.38L47.60 4.38L47.60 4.38Q47.75 4.21 48.03 4.21L48.03 4.21L48.03 4.21Q48.24 4.21 48.38 4.27L48.38 4.27L48.38 4.27Q48.51 4.33 48.57 4.40L48.57 4.40L48.57 4.40Q48.64 4.48 48.66 4.56L48.66 4.56L48.66 4.56Q48.68 4.63 48.68 4.69L48.68 4.69L48.68 4.69Q48.68 4.72 48.66 4.79L48.66 4.79L48.66 4.79Q48.65 4.86 48.59 5.07L48.59 5.07L48.59 5.07Q48.52 5.35 48.52 5.49ZM52.89 2.66L52.89 2.66L52.89 2.66Q53.09 2.69 53.09 2.87L53.09 2.87L53.09 2.97L53.09 2.97Q53.09 3.04 53.05 3.09L53.05 3.09L53.05 3.09Q53.00 3.15 52.86 3.21L52.86 3.21L52.86 3.21Q52.72 3.26 52.23 3.35L52.23 3.35L52.23 3.35Q51.91 3.42 51.70 3.43L51.70 3.43L51.70 3.43Q51.49 3.44 51.34 3.44L51.34 3.44L50.90 3.47L50.90 3.47Q50.88 3.67 50.84 4.09L50.84 4.09L50.84 4.09Q50.81 4.52 50.74 5.15L50.74 5.15L50.74 5.15Q50.68 5.68 50.65 6.02L50.65 6.02L50.65 6.02Q50.62 6.36 50.60 6.55L50.60 6.55L50.60 6.55Q50.58 6.75 50.58 6.83L50.58 6.83L50.58 6.83Q50.57 6.92 50.57 6.94L50.57 6.94L50.57 6.94Q50.57 7.62 50.58 8.03L50.58 8.03L50.58 8.03Q50.58 8.44 50.60 8.60L50.60 8.60L50.60 8.60Q50.64 9.04 50.72 9.18L50.72 9.18L50.72 9.18Q50.79 9.32 50.82 9.32L50.82 9.32L50.82 9.32Q50.88 9.30 50.93 9.23L50.93 9.23L50.93 9.23Q50.99 9.16 51.07 9.03L51.07 9.03L51.07 9.03Q51.14 8.90 51.25 8.67L51.25 8.67L51.25 8.67Q51.41 8.29 51.58 7.71L51.58 7.71L51.58 7.71Q51.76 7.13 51.94 6.36L51.94 6.36L51.94 6.36Q51.98 6.17 52.02 6.05L52.02 6.05L52.02 6.05Q52.07 5.92 52.09 5.82L52.09 5.82L52.09 5.82Q52.12 5.75 52.19 5.64L52.19 5.64L52.19 5.64Q52.25 5.53 52.39 5.53L52.39 5.53L52.39 5.53Q52.51 5.53 52.63 5.62L52.63 5.62L52.63 5.62Q52.74 5.71 52.74 5.95L52.74 5.95L52.74 5.95Q52.74 6.22 52.61 6.75L52.61 6.75L52.61 6.75Q52.49 7.29 52.21 8.13L52.21 8.13L52.21 8.13Q51.84 9.21 51.50 9.72L51.50 9.72L51.50 9.72Q51.16 10.23 50.78 10.23L50.78 10.23L50.78 10.23Q50.25 10.23 49.92 9.42L49.92 9.42L49.92 9.42Q49.64 8.69 49.64 7.62L49.64 7.62L49.64 7.62Q49.64 7.27 49.73 6.27L49.73 6.27L49.73 6.27Q49.83 5.28 50.02 3.50L50.02 3.50L50.02 3.50Q49.90 3.53 49.78 3.49L49.78 3.49L49.78 3.49Q49.67 3.46 49.63 3.43L49.63 3.43L49.63 3.43Q49.60 3.42 49.56 3.37L49.56 3.37L49.56 3.37Q49.52 3.33 49.41 3.29L49.41 3.29L49.41 3.29Q49.21 3.22 49.16 3.12L49.16 3.12L49.16 3.12Q49.11 3.01 49.11 2.94L49.11 2.94L49.11 2.94Q49.11 2.90 49.16 2.79L49.16 2.79L49.16 2.79Q49.21 2.69 49.49 2.63L49.49 2.63L49.49 2.63Q49.57 2.62 49.63 2.61L49.63 2.61L49.63 2.61Q49.69 2.60 49.74 2.60L49.74 2.60L49.74 2.60Q49.80 2.59 49.88 2.58L49.88 2.58L49.88 2.58Q49.95 2.58 50.08 2.56L50.08 2.56L50.08 2.56Q50.09 2.41 50.11 2.18L50.11 2.18L50.11 2.18Q50.12 1.96 50.13 1.67L50.13 1.67L50.06 1.43L50.06 1.43Q50.06 1.34 50.08 1.30L50.08 1.30L50.08 1.30Q50.19 1.08 50.43 1.08L50.43 1.08L50.43 1.08Q50.68 1.08 51.14 1.37L51.14 1.37L51.14 1.37Q51.23 1.44 51.23 1.54L51.23 1.54L51.23 1.86L51.23 1.90L51.23 1.90Q51.20 2.06 51.16 2.22L51.16 2.22L51.16 2.22Q51.13 2.38 51.09 2.58L51.09 2.58L51.09 2.58Q51.18 2.58 51.21 2.58L51.21 2.58L51.21 2.58Q51.23 2.58 51.24 2.58L51.24 2.58L51.24 2.58Q51.25 2.59 51.31 2.60L51.31 2.60L51.31 2.60Q51.37 2.60 51.56 2.60L51.56 2.60L51.56 2.60Q51.74 2.60 51.85 2.61L51.85 2.61L51.85 2.61Q51.95 2.62 52.07 2.63L52.07 2.63L52.07 2.63Q52.19 2.63 52.37 2.64L52.37 2.64L52.37 2.64Q52.56 2.65 52.89 2.66ZM55.47 5.49L55.47 5.49L55.47 5.49Q55.65 5.49 55.64 5.59L55.64 5.59L55.64 5.59Q55.62 5.70 55.62 5.87L55.62 5.87L55.62 5.87Q55.62 5.89 55.62 5.96L55.62 5.96L55.62 5.96Q55.61 6.02 55.58 6.13L55.58 6.13L55.58 6.13Q55.55 6.24 55.51 6.44L55.51 6.44L55.51 6.44Q55.47 6.64 55.38 6.93L55.38 6.93L55.38 6.93Q55.12 8.01 54.81 8.83L54.81 8.83L54.81 8.83Q54.66 9.24 54.51 9.53L54.51 9.53L54.51 9.53Q54.36 9.81 54.22 10.01L54.22 10.01L54.22 10.01Q53.84 10.54 53.27 10.54L53.27 10.54L53.27 10.54Q52.63 10.54 52.16 9.87L52.16 9.87L52.16 9.87Q51.74 9.24 51.74 8.34L51.74 8.34L51.74 8.34Q51.74 7.62 51.85 6.87L51.85 6.87L51.85 6.87Q51.95 6.13 52.12 5.54L52.12 5.54L52.12 5.54Q52.18 5.33 52.26 5.11L52.26 5.11L52.26 5.11Q52.33 4.89 52.44 4.70L52.44 4.70L52.44 4.70Q52.56 4.51 52.70 4.39L52.70 4.39L52.70 4.39Q52.84 4.27 53.03 4.27L53.03 4.27L53.03 4.27Q53.42 4.27 53.76 4.56L53.76 4.56L53.76 4.56Q53.91 4.72 54.01 4.94L54.01 4.94L54.01 4.94Q54.11 5.17 54.11 5.33L54.11 5.33L54.11 5.33Q54.11 5.61 54.05 5.95L54.05 5.95L54.05 5.95Q54.00 6.29 53.91 6.62L53.91 6.62L53.91 6.62Q53.83 6.94 53.73 7.22L53.73 7.22L53.73 7.22Q53.62 7.49 53.51 7.66L53.51 7.66L53.51 7.66Q53.44 7.78 53.31 7.91L53.31 7.91L53.31 7.91Q53.19 8.04 53.05 8.11L53.05 8.11L53.05 8.11Q52.92 8.19 52.80 8.20L52.80 8.20L52.80 8.20Q52.68 8.20 52.60 8.09L52.60 8.09L52.60 8.09Q52.57 8.20 52.58 8.39L52.58 8.39L52.58 8.39Q52.60 8.57 52.63 8.74L52.63 8.74L52.63 8.74Q52.65 8.92 52.70 9.07L52.70 9.07L52.70 9.07Q52.74 9.23 52.77 9.30L52.77 9.30L52.77 9.30Q52.88 9.53 53.06 9.65L53.06 9.65L53.06 9.65Q53.24 9.77 53.31 9.77L53.31 9.77L53.31 9.77Q53.45 9.77 53.59 9.56L53.59 9.56L53.59 9.56Q53.72 9.35 53.93 9.03L53.93 9.03L53.93 9.03Q54.17 8.65 54.46 7.97L54.46 7.97L54.46 7.97Q54.75 7.28 54.99 6.50L54.99 6.50L54.99 6.50Q55.03 6.34 55.07 6.20L55.07 6.20L55.07 6.20Q55.10 6.05 55.15 5.89L55.15 5.89L55.15 5.89Q55.22 5.49 55.47 5.49ZM53.27 5.19L53.27 5.19L53.27 5.19Q53.16 5.50 53.07 5.75L53.07 5.75L53.07 5.75Q52.98 5.99 52.89 6.22L52.89 6.22L52.89 6.22Q52.81 6.45 52.75 6.69L52.75 6.69L52.75 6.69Q52.70 6.93 52.68 7.22L52.68 7.22L52.68 7.22Q52.86 7.21 53.00 6.97L53.00 6.97L53.00 6.97Q53.13 6.73 53.17 6.54L53.17 6.54L53.17 6.54Q53.23 6.26 53.29 5.97L53.29 5.97L53.29 5.97Q53.35 5.68 53.35 5.38L53.35 5.38L53.35 5.38Q53.35 5.31 53.33 5.20L53.33 5.20L53.33 5.20Q53.31 5.10 53.27 5.19ZM58.73 5.53L58.73 5.53L58.73 5.53Q58.79 5.53 58.92 5.59L58.92 5.59L58.92 5.59Q59.05 5.66 59.05 5.95L59.05 5.95L59.05 5.95Q59.05 6.44 58.46 8.29L58.46 8.29L58.46 8.29Q58.23 8.99 58.04 9.41L58.04 9.41L58.04 9.41Q57.86 9.83 57.72 10.05L57.72 10.05L57.72 10.05Q57.57 10.28 57.45 10.35L57.45 10.35L57.45 10.35Q57.33 10.42 57.23 10.42L57.23 10.42L57.23 10.42Q56.66 10.42 56.29 9.77L56.29 9.77L56.29 9.77Q56.24 9.70 56.19 9.49L56.19 9.49L56.19 9.49Q56.14 9.28 56.11 8.76L56.11 8.76L56.11 7.69L56.11 6.48L56.11 6.48Q56.11 6.45 56.06 6.35L56.06 6.35L56.06 6.35Q56 6.24 55.75 6.08L55.75 6.08L55.75 6.08Q55.66 6.52 55.41 7.39L55.41 7.39L55.41 7.39Q55.41 7.43 55.33 7.60L55.33 7.60L55.33 7.60Q55.30 7.66 55.29 7.69L55.29 7.69L55.29 7.69Q55.27 7.71 55.26 7.73L55.26 7.73L55.26 7.73Q55.26 7.78 55.19 7.83L55.19 7.83L55.19 7.83Q55.12 7.90 55.02 7.85L55.02 7.85L54.81 7.80L54.81 7.80Q54.66 7.74 54.66 7.60L54.66 7.60L54.66 7.60Q54.66 7.59 54.66 7.55L54.66 7.55L54.66 7.55Q54.66 7.52 54.68 7.43L54.68 7.43L54.68 7.43Q54.70 7.34 54.74 7.17L54.74 7.17L54.74 7.17Q54.78 7 54.87 6.71L54.87 6.71L54.87 6.71Q55.05 6.02 55.05 5.60L55.05 5.60L55.05 5.60Q55.05 5.57 55.03 5.47L55.03 5.47L55.03 5.47Q55.02 5.36 54.95 5.17L54.95 5.17L54.95 5.17Q54.81 4.83 54.81 4.56L54.81 4.56L54.81 4.56Q54.81 4.27 54.87 4.09L54.87 4.09L54.87 4.09Q54.92 3.91 55.01 3.80L55.01 3.80L55.01 3.80Q55.09 3.70 55.20 3.65L55.20 3.65L55.20 3.65Q55.30 3.61 55.40 3.61L55.40 3.61L55.40 3.61Q55.45 3.61 55.54 3.63L55.54 3.63L55.54 3.63Q55.62 3.65 55.70 3.72L55.70 3.72L55.70 3.72Q55.78 3.79 55.84 3.93L55.84 3.93L55.84 3.93Q55.90 4.06 55.92 4.27L55.92 4.27L55.92 4.27Q55.93 4.41 55.89 4.76L55.89 4.76L55.89 4.76Q55.86 4.96 55.86 5.05L55.86 5.05L55.86 5.05Q55.86 5.15 55.86 5.21L55.86 5.21L55.86 5.21Q55.87 5.24 55.97 5.31L55.97 5.31L55.97 5.31Q56.07 5.38 56.38 5.53L56.38 5.53L56.38 5.53Q57.13 5.89 57.13 6.47L57.13 6.47L57.13 6.47Q57.13 6.50 57.13 6.57L57.13 6.57L57.13 6.57Q57.12 6.65 57.11 6.80L57.11 6.80L57.11 6.80Q57.11 6.96 57.08 7.22L57.08 7.22L57.08 7.22Q57.05 7.49 57.01 7.91L57.01 7.91L57.01 7.91Q56.98 8.20 56.96 8.40L56.96 8.40L56.96 8.40Q56.94 8.60 56.92 8.72L56.92 8.72L56.92 8.72Q56.91 8.85 56.90 8.93L56.90 8.93L56.90 8.93Q56.90 9.02 56.90 9.10L56.90 9.10L56.90 9.10Q56.90 9.44 56.97 9.52L56.97 9.52L56.97 9.52Q57.04 9.60 57.11 9.60L57.11 9.60L57.11 9.60Q57.12 9.59 57.17 9.53L57.17 9.53L57.17 9.53Q57.22 9.46 57.30 9.30L57.30 9.30L57.30 9.30Q57.37 9.14 57.48 8.87L57.48 8.87L57.48 8.87Q57.58 8.60 57.74 8.16L57.74 8.16L57.74 8.16Q58.21 6.79 58.32 6.05L58.32 6.05L58.32 6.05Q58.37 5.73 58.49 5.63L58.49 5.63L58.49 5.63Q58.62 5.53 58.73 5.53ZM62.05 11.02L62.05 11.02L62.05 11.02Q62.52 11.02 62.66 11.19L62.66 11.19L62.66 11.19Q62.79 11.35 62.79 11.49L62.79 11.49L62.79 11.49Q62.79 11.56 62.75 11.67L62.75 11.67L62.75 11.67Q62.71 11.77 62.55 11.87L62.55 11.87L62.47 11.91L62.40 11.89L62.40 11.89Q62.20 11.82 62.03 11.79L62.03 11.79L62.03 11.79Q61.85 11.77 61.67 11.77L61.67 11.77L61.67 11.77Q61.43 11.77 61.22 11.82L61.22 11.82L61.22 11.82Q61.26 12.15 61.29 12.37L61.29 12.37L61.29 12.37Q61.32 12.59 61.33 12.71L61.33 12.71L61.33 12.71Q61.33 12.84 61.34 12.89L61.34 12.89L61.34 12.89Q61.35 12.95 61.35 12.96L61.35 12.96L61.35 12.96Q61.35 14.42 60.73 15.46L60.73 15.46L60.73 15.46Q60.09 16.52 59.11 16.52L59.11 16.52L59.11 16.52Q58.25 16.52 57.67 15.95L57.67 15.95L57.67 15.95Q57.05 15.37 57.05 14.60L57.05 14.60L57.05 14.60Q57.05 13.64 57.90 12.78L57.90 12.78L57.90 12.78Q58.69 12.00 60.20 11.34L60.20 11.34L60.20 11.34Q60.03 10.81 59.56 10.50L59.56 10.50L59.56 10.50Q59.19 10.79 58.94 10.79L58.94 10.79L58.94 10.79Q58.69 10.79 58.55 10.73L58.55 10.73L58.55 10.73Q58.41 10.67 58.33 10.57L58.33 10.57L58.33 10.57Q58.25 10.47 58.23 10.38L58.23 10.38L58.23 10.38Q58.21 10.29 58.21 10.22L58.21 10.22L58.21 10.22Q58.21 9.91 58.51 9.76L58.51 9.76L58.51 9.76Q58.73 9.65 59.08 9.65L59.08 9.65L59.08 9.65Q59.77 8.85 60.02 8.23L60.02 8.23L60.02 8.23Q60.38 7.35 60.38 6.09L60.38 6.09L60.38 6.09Q60.38 5.78 60.33 5.61L60.33 5.61L60.33 5.61Q60.27 5.43 60.20 5.35L60.20 5.35L60.20 5.35Q60.13 5.28 60.05 5.26L60.05 5.26L60.05 5.26Q59.96 5.25 59.92 5.25L59.92 5.25L59.92 5.25Q59.64 5.25 59.33 5.60L59.33 5.60L59.33 5.60Q59.16 5.80 59.05 6.04L59.05 6.04L59.05 6.04Q58.94 6.29 58.86 6.51L58.86 6.51L58.86 6.51Q58.79 6.71 58.73 6.92L58.73 6.92L58.73 6.92Q58.67 7.13 58.49 7.13L58.49 7.13L58.49 7.13Q58.18 7.13 58.18 6.68L58.18 6.68L58.18 6.68Q58.18 6.45 58.28 6.13L58.28 6.13L58.28 6.13Q58.38 5.81 58.53 5.42L58.53 5.42L58.53 5.42Q59.00 4.35 59.70 4.35L59.70 4.35L59.70 4.35Q60.40 4.35 60.82 4.86L60.82 4.86L60.82 4.86Q61.24 5.35 61.24 6.12L61.24 6.12L61.24 6.12Q61.24 8.22 59.99 9.95L59.99 9.95L59.99 9.95Q60.20 10.08 60.35 10.19L60.35 10.19L60.35 10.19Q60.51 10.29 60.59 10.40L60.59 10.40L60.59 10.40Q60.80 10.64 61.03 11.12L61.03 11.12L61.03 11.12Q61.32 11.06 61.57 11.04L61.57 11.04L61.57 11.04Q61.82 11.02 62.05 11.02ZM60.06 14.95L60.06 14.95L60.06 14.95Q60.54 14.14 60.54 12.88L60.54 12.88L60.54 12.88Q60.54 12.64 60.52 12.43L60.52 12.43L60.52 12.43Q60.51 12.22 60.47 12.03L60.47 12.03L60.47 12.03Q59.57 12.28 58.83 13.10L58.83 13.10L58.83 13.10Q58.03 13.99 58.03 14.80L58.03 14.80L58.03 14.80Q58.03 15.22 58.28 15.48L58.28 15.48L58.28 15.48Q58.51 15.74 58.91 15.74L58.91 15.74L58.91 15.74Q59.58 15.74 60.06 14.95Z"></path></g><defs data-v-423bf9ae=""><linearGradient data-v-423bf9ae="" gradientTransform="rotate(25)" id="9e61e834-d99c-4fe1-9992-ed4a5a0de8e9" x1="0%" y1="0%" x2="100%" y2="0%"><stop data-v-423bf9ae="" offset="0%" style="stop-color: rgb(197, 25, 75); stop-opacity: 1;"></stop><stop data-v-423bf9ae="" offset="100%" style="stop-color: rgb(223, 223, 79); stop-opacity: 1;"></stop></linearGradient></defs><g data-v-423bf9ae="" id="91f6f660-33bf-45b8-aeb0-641b132746df" transform="matrix(1.020200490951538,0,0,1.020200490951538,-11.717903137207031,1.1817790269851685)" stroke="none" fill="url(#9e61e834-d99c-4fe1-9992-ed4a5a0de8e9)"><path d="M71.216 77.349C77.944 69.32 83.171 59.778 86.05 49.7c2.546-8.914 1.548-17.041-3.969-24.562-2.871-3.913-6.871-7.094-11.334-8.374.156-.927-.237-1.912-1.151-2.59-4.676-3.467-10.479-3.356-16.064-2.782a2.464 2.464 0 0 0-1.2-.803c-3.457-1.097-3.446-3.961-2.254-6.925.602-1.497-.306-2.567-1.513-2.894-.51-1.312-1.967-2.242-3.493-1.263-2.267 1.455-4.806 2.404-7.403 3.081-2.411.629-2.159 3.647-.479 4.61-.258 2.852-1.824 4.956-4.785 6.309-4.756 2.428-9.108 5.49-12.323 9.566-11.186 7.153-9.002 22.718-4.279 34.07 2.874 6.907 6.995 12.276 11.96 17.771 5.525 6.114 12.224 15.365 21.286 15.968 9.307.62 16.651-6.951 22.167-13.533zm-44.558-54.11c2.466-2.184 5.374-3.934 8.271-5.413 4.664-2.132 7.408-6.448 7.324-11.44a30.77 30.77 0 0 0 2.18-.885c-.37 3.156.68 6.053 3.041 8.018-.614 1.547.087 3.553 2.156 3.316 4.333-.497 9.164-1.402 13.421-.232-.682.171-1.366.375-2.05.655-1.686.689-1.979 2.569-1.364 3.822a7.531 7.531 0 0 0-.698 3.653c.103 1.727.944 3.325 1.633 4.876a16.09 16.09 0 0 1 1.332 5.128c-4.632-2.966-8.842-6.624-14.242-8.146-1.183-.333-2.13.249-2.822 1.149-2.224 2.892-4.964 5.274-7.461 7.883-.073-3.254.586-6.427 2.446-9.359 1.165-1.838-.753-4.317-2.823-3.672-3.583 1.116-7.253 1.87-10.908 2.683a2.772 2.772 0 0 0 .564-2.036zm20.86 62.276C40.87 83.818 35.626 76.207 31.3 71.38c-4.023-4.489-7.392-8.709-10.032-14.172-3.305-6.839-6.542-17.874-2.943-25.159.44.139.906.164 1.341.029 4.46-1.389 9.055-2.218 13.589-3.299-1.252 4.348-1.018 8.998.002 13.553.495 2.211 3.468 2.329 4.569.597 2.669-4.196 6.694-7.302 9.978-11.027 5.562 2.091 9.935 6.652 15.269 9.257 1.829.893 3.532-.23 3.762-2.159.471-3.956-.041-7.579-1.626-11.228-.496-1.143-1.19-2.342-1.265-3.609-.058-.982.723-1.99 1.743-2.898 6.081-.533 11.057 4.356 14.222 9.615 4.145 6.888 2.469 14.53-.007 21.701-2.654 7.686-7.143 14.924-12.219 21.233-4.707 5.847-11.904 13.81-20.165 11.701z"></path><path d="M32.262 52.175c-1.208-.631-2.708-.319-3.42.897-.664 1.133-.31 2.79.897 3.42.304.159.591.337.872.532l.044.037a7.905 7.905 0 0 1 .803.783c.022.023.145.179.221.274.183.259.348.53.495.811.63 1.207 2.287 1.561 3.42.897 1.216-.712 1.528-2.213.897-3.42-.917-1.757-2.473-3.314-4.229-4.231zM57.5 49.167a2.523 2.523 0 0 0-2.5 2.5V55c0 1.363 1.137 2.5 2.5 2.5S60 56.363 60 55v-3.333c0-1.363-1.137-2.5-2.5-2.5zM47 47.167c-3 0-3 5 0 5 0 0 3-5 0-5zM75.434 46.101c1.199-1.259 1.398-2.765 1.399-4.434.001-1.363-1.138-2.5-2.5-2.5-1.363 0-2.499 1.137-2.5 2.5 0 .231-.001.463-.005.694a5.077 5.077 0 0 1-.026.328c-.835.99-.846 2.47.096 3.413.946.945 2.597.986 3.536-.001zM50.5 65.167a2.523 2.523 0 0 0-2.5 2.5v2.667c0 1.363 1.137 2.5 2.5 2.5s2.5-1.137 2.5-2.5v-2.667c0-1.363-1.137-2.5-2.5-2.5zM25 37.833c-1.178.082-2.02.53-2.681 1.516-.442.659-.484 1.553-.485 2.318-.002 1.363 1.139 2.5 2.5 2.5 1.235 0 2.271-.934 2.46-2.12a2.373 2.373 0 0 0 .706-1.713c0-1.292-1.139-2.596-2.5-2.501zM69.434 65.434c.963-.963.963-2.572 0-3.536-.963-.963-2.572-.963-3.536 0l-.667.667c-.963.963-.963 2.572 0 3.536.963.963 2.572.963 3.536 0l.667-.667z"></path></g><!----></svg>